<?xml version="1.0" standalone="no"?><!DOCTYPE svg PUBLIC "-//W3C//DTD SVG 1.1//EN" "http://www.w3.org/Graphics/SVG/1.1/DTD/svg11.dtd"><svg t="1643112264324" class="icon" viewBox="0 0 1024 1024" version="1.1" xmlns="http://www.w3.org/2000/svg" p-id="1229" xmlns:xlink="http://www.w3.org/1999/xlink" width="200" height="200"><defs><style type="text/css"></style></defs><path d="M431.0528 364.5952h423.7824c33.7408 0 60.0064 30.1056 56.2688 64.512l-40.3456 229.9392c-3.1744 29.3888-27.4432 51.6096-56.2688 51.6096H458.752c-28.5696 0-52.6848-21.8624-56.2176-50.944l-27.6992-229.9392c-4.1472-34.6624 22.1696-65.1776 56.2176-65.1776z" fill="#56E5BE" p-id="1230"></path><path d="M477.5424 412.4672h373.76c29.6448 0 52.6848 26.4192 49.408 56.6272l-37.3248 201.7792c-2.816 25.8048-59.904 45.312-85.248 45.312H501.8624c-25.088 0-46.2336-19.2-49.3056-44.6976l-24.32-201.7792c-3.6864-30.464 19.456-57.2416 49.3056-57.2416z" fill="#50DDB8" p-id="1231"></path><path d="M536.576 467.2h321.8944c25.344 0 45.056 21.6576 42.24 46.3872l-34.1504 150.016c-2.4064 21.1456-66.6624 52.48-88.32 52.48h-220.928c-21.4528 0-39.5776-15.7184-42.1888-36.6592l-20.7872-165.376c-3.072-24.8832 16.6912-46.848 42.24-46.848z" fill="#42D3AD" p-id="1232"></path><path d="M792.9856 716.6976H388.608c-49.7152 0-92.0064-37.1712-98.3552-86.4768L233.3696 189.6448a18.10432 18.10432 0 0 0-17.92-15.7184H121.856c-16.9472 0-30.72-13.7728-30.72-30.72s13.7728-30.72 30.72-30.72h93.5936c39.8336 0 73.728 29.7984 78.848 69.3248l10.5472 81.4592h533.4528a99.15904 99.15904 0 0 1 98.4576 110.7456c-0.0512 0.6144-0.1536 1.1776-0.256 1.792l-45.1584 254.3104c-6.2976 49.408-48.384 86.5792-98.3552 86.5792z m-480.256-391.9872l38.4512 297.6768c2.4064 18.7392 18.5344 32.8704 37.4272 32.8704h404.3776c19.1488 0 35.2256-14.336 37.4784-33.3312 0.0512-0.6144 0.1536-1.1776 0.256-1.792l45.1072-254.1056c1.024-10.5472-2.2528-20.736-9.3696-28.672a37.3248 37.3248 0 0 0-28.2112-12.6464H312.7296zM389.5296 914.3808c-45.6192 0-82.7392-37.12-82.7392-82.7392s37.12-82.7392 82.7392-82.7392 82.7392 37.12 82.7392 82.7392-37.12 82.7392-82.7392 82.7392z m0-104.0384a21.3504 21.3504 0 0 0-21.2992 21.2992c0 11.7248 9.5744 21.2992 21.2992 21.2992s21.2992-9.5744 21.2992-21.2992c0-11.776-9.5744-21.2992-21.2992-21.2992zM757.4016 914.3808c-45.6192 0-82.7392-37.12-82.7392-82.7392s37.12-82.7392 82.7392-82.7392 82.7392 37.12 82.7392 82.7392-37.12 82.7392-82.7392 82.7392z m0-104.0384a21.3504 21.3504 0 0 0-21.2992 21.2992 21.3504 21.3504 0 0 0 21.2992 21.2992 21.3504 21.3504 0 0 0 21.2992-21.2992c0-11.776-9.5232-21.2992-21.2992-21.2992z" fill="#2E3138" p-id="1233"></path></svg>