<?xml version="1.0" standalone="no"?><!DOCTYPE svg PUBLIC "-//W3C//DTD SVG 1.1//EN" "http://www.w3.org/Graphics/SVG/1.1/DTD/svg11.dtd"><svg t="1643112302739" class="icon" viewBox="0 0 1024 1024" version="1.1" xmlns="http://www.w3.org/2000/svg" p-id="1512" xmlns:xlink="http://www.w3.org/1999/xlink" width="200" height="200"><defs><style type="text/css"></style></defs><path d="M821.8624 841.0112H294.4512c-54.9376 0-99.5328-44.544-99.5328-99.5328V373.6064c0-54.9376 44.544-99.5328 99.5328-99.5328h527.4624c54.9376 0 99.5328 44.544 99.5328 99.5328v367.872c-0.0512 54.9376-44.5952 99.5328-99.584 99.5328z" fill="#56E5BE" p-id="1513"></path><path d="M821.8624 841.0112H365.4656c-54.9376 0-99.5328-44.544-99.5328-99.5328V436.992c0-54.9376 44.544-99.5328 99.5328-99.5328h456.3968c54.9376 0 99.5328 44.544 99.5328 99.5328v304.4864c0 54.9376-44.544 99.5328-99.5328 99.5328z" fill="#50DDB8" p-id="1514"></path><path d="M821.8624 841.0112H440.064c-54.9376 0-99.5328-44.544-99.5328-99.5328V494.336c0-54.9376 44.544-99.5328 99.5328-99.5328h381.7984c54.9376 0 99.5328 44.544 99.5328 99.5328v247.1936c0 54.8864-44.544 99.4816-99.5328 99.4816z" fill="#42D3AD" p-id="1515"></path><path d="M821.8624 152.1664H200.5504c-71.8336 0-130.2528 58.4192-130.2528 130.2528v459.1104c0 71.8336 58.4192 130.2528 130.2528 130.2528h621.312c71.8336 0 130.2528-58.4192 130.2528-130.2528V282.368c0-71.7824-58.4192-130.2016-130.2528-130.2016z m-621.312 61.44h621.312c37.9392 0 68.8128 30.8736 68.8128 68.8128v71.1168H131.7376v-71.168c0-37.9392 30.8736-68.7616 68.8128-68.7616z m621.312 596.6848H200.5504c-37.9392 0-68.8128-30.8736-68.8128-68.8128V414.9248h758.9376v326.5536c0 37.9392-30.8736 68.8128-68.8128 68.8128z" fill="#2E3138" p-id="1516"></path><path d="M408.9344 565.9648H227.072c-16.9472 0-30.72-13.7728-30.72-30.72s13.7728-30.72 30.72-30.72h181.8624c16.9472 0 30.72 13.7728 30.72 30.72s-13.7728 30.72-30.72 30.72z" fill="#2E3138" p-id="1517"></path></svg>