<?xml version="1.0" standalone="no"?><!DOCTYPE svg PUBLIC "-//W3C//DTD SVG 1.1//EN" "http://www.w3.org/Graphics/SVG/1.1/DTD/svg11.dtd"><svg t="1643112287598" class="icon" viewBox="0 0 1024 1024" version="1.1" xmlns="http://www.w3.org/2000/svg" p-id="1369" xmlns:xlink="http://www.w3.org/1999/xlink" width="200" height="200"><defs><style type="text/css"></style></defs><path d="M563.8144 545.8944m-340.5824 0a340.5824 340.5824 0 1 0 681.1648 0 340.5824 340.5824 0 1 0-681.1648 0Z" fill="#56E5BE" p-id="1370"></path><path d="M598.016 580.1472m-306.3808 0a306.3808 306.3808 0 1 0 612.7616 0 306.3808 306.3808 0 1 0-612.7616 0Z" fill="#50DDB8" p-id="1371"></path><path d="M632.9856 605.0816m-266.3936 0a266.3936 266.3936 0 1 0 532.7872 0 266.3936 266.3936 0 1 0-532.7872 0Z" fill="#42D3AD" p-id="1372"></path><path d="M516.7104 90.5728c-126.1056 0-242.7392 55.5008-321.7408 150.784V169.7792c0-16.9472-13.7728-30.72-30.72-30.72s-30.72 13.7728-30.72 30.72v140.288c0 16.9472 13.7728 30.72 30.72 30.72h146.5856c16.9472 0 30.72-13.7728 30.72-30.72s-13.7728-30.72-30.72-30.72H243.3024c67.4304-80.4864 166.4-127.3344 273.408-127.3344 196.9152 0 357.12 160.2048 357.12 357.12s-160.2048 357.12-357.12 357.12-357.12-160.2048-357.12-357.12c0-16.9472-13.7728-30.72-30.72-30.72s-30.72 13.7728-30.72 30.72c0 230.8096 187.7504 418.56 418.56 418.56s418.56-187.7504 418.56-418.56S747.52 90.5728 516.7104 90.5728z" fill="#2E3138" p-id="1373"></path><path d="M417.6384 547.0208c-16.9472 0-30.72 13.7728-30.72 30.72s13.7728 30.72 30.72 30.72h63.2832v47.9232c0 16.9472 13.7728 30.72 30.72 30.72s30.72-13.7728 30.72-30.72v-47.9232h63.2832c16.9472 0 30.72-13.7728 30.72-30.72s-13.7728-30.72-30.72-30.72h-63.2832v-31.4368h63.2832c16.9472 0 30.72-13.7728 30.72-30.72s-13.7728-30.72-30.72-30.72h-48.2304l50.9952-49.9712c12.1344-11.8784 12.3392-31.3344 0.4608-43.4176a30.73536 30.73536 0 0 0-43.4688-0.4608l-54.784 53.6576-54.016-54.6816a30.73024 30.73024 0 0 0-43.4688-0.256 30.73024 30.73024 0 0 0-0.256 43.4688l51.0464 51.6608h-46.3872c-16.9472 0-30.72 13.7728-30.72 30.72s13.7728 30.72 30.72 30.72h63.2832v31.4368H417.6384z" fill="#2E3138" p-id="1374"></path></svg>